<svg xmlns="http://www.w3.org/2000/svg" xmlns:xlink="http://www.w3.org/1999/xlink" viewBox="0 0 160.95 52.37"><defs><style>.cls-1{font-size:26.34px;font-family:DMSans-Medium, DM Sans;font-weight:500;letter-spacing:-0.07em;}.cls-2{letter-spacing:-0.05em;}.cls-3{fill:url(#linear-gradient);}.cls-4{fill:url(#linear-gradient-2);}.cls-5{fill:url(#linear-gradient-3);}</style><linearGradient id="linear-gradient" x1="20.76" y1="32.5" x2="26.57" y2="43.66" gradientUnits="userSpaceOnUse"><stop offset="0" stop-color="#690000"/><stop offset="1" stop-color="red"/></linearGradient><linearGradient id="linear-gradient-2" x1="26.67" y1="-16.63" x2="15.36" y2="22.81" gradientUnits="userSpaceOnUse"><stop offset="0" stop-color="#fff"/><stop offset="1" stop-color="red"/></linearGradient><linearGradient id="linear-gradient-3" x1="61.63" y1="-6.6" x2="50.32" y2="32.84" xlink:href="#linear-gradient-2"/></defs><g id="Layer_2" data-name="Layer 2"><g id="Layer_1-2" data-name="Layer 1"><text class="cls-1" transform="translate(78.06 22.39)">R<tspan class="cls-2" x="13.99" y="0">escue</tspan><tspan class="cls-2"><tspan x="0" y="23.07">Quick</tspan></tspan></text><path class="cls-3" d="M30,41.88a4.6,4.6,0,0,1-1.95,2.92h0a4.58,4.58,0,0,1-3.47.69,4.73,4.73,0,0,1-1.85-.84l-5.67-3.17,8.82-5.89A18.24,18.24,0,0,0,29.38,33L30,39.89A4.6,4.6,0,0,1,30,41.88Z"/><path class="cls-4" d="M23.94,4.75l0,0a16.19,16.19,0,0,0-23.67,15L.06,39.36a5,5,0,0,0,2.65,5.22h0a5.08,5.08,0,0,0,3.86.34,5.13,5.13,0,0,0,1.9-1.09l16-10.66a16.19,16.19,0,0,0-.49-28.43ZM22.54,22.3A6.9,6.9,0,1,1,19.63,13,6.9,6.9,0,0,1,22.54,22.3Z"/><path class="cls-5" d="M67.72,39.36l-.18-19.61a16.19,16.19,0,0,0-23.67-15l0,0a16.19,16.19,0,0,0-.49,28.43L59.3,43.84a5.13,5.13,0,0,0,1.9,1.09,5.08,5.08,0,0,0,3.86-.34h0a5,5,0,0,0,2.65-5.22ZM54.56,25.21a6.9,6.9,0,1,1,2.91-9.31A6.9,6.9,0,0,1,54.56,25.21Z"/></g></g></svg>