<svg xmlns="http://www.w3.org/2000/svg" xmlns:xlink="http://www.w3.org/1999/xlink" viewBox="0 0 67.78 42.69"><defs><style>.cls-1{fill:url(#linear-gradient);}.cls-2{fill:url(#linear-gradient-2);}.cls-3{fill:url(#linear-gradient-3);}</style><linearGradient id="linear-gradient" x1="20.76" y1="29.6" x2="26.57" y2="40.76" gradientUnits="userSpaceOnUse"><stop offset="0" stop-color="#690000"/><stop offset="1" stop-color="red"/></linearGradient><linearGradient id="linear-gradient-2" x1="26.67" y1="-19.53" x2="15.36" y2="19.91" gradientUnits="userSpaceOnUse"><stop offset="0" stop-color="#fff"/><stop offset="1" stop-color="red"/></linearGradient><linearGradient id="linear-gradient-3" x1="61.63" y1="-9.5" x2="50.32" y2="29.94" xlink:href="#linear-gradient-2"/></defs><g id="Layer_2" data-name="Layer 2"><g id="Layer_1-2" data-name="Layer 1"><path class="cls-1" d="M30,39a4.6,4.6,0,0,1-1.95,2.92h0a4.58,4.58,0,0,1-3.47.69,4.73,4.73,0,0,1-1.85-.84l-5.67-3.17,8.82-5.89a18.24,18.24,0,0,0,3.47-2.57L30,37A4.6,4.6,0,0,1,30,39Z"/><path class="cls-2" d="M23.94,1.85l0,0a16.19,16.19,0,0,0-23.67,15L.06,36.46a5,5,0,0,0,.16,2.23,5,5,0,0,0,2.49,3h0A5,5,0,0,0,6.58,42a5.13,5.13,0,0,0,1.9-1.09l16-10.66a16.19,16.19,0,0,0-.49-28.43ZM22.54,19.4a6.9,6.9,0,1,1-2.91-9.31A6.9,6.9,0,0,1,22.54,19.4Z"/><path class="cls-3" d="M67.72,36.46l-.18-19.61a16.19,16.19,0,0,0-23.67-15l0,0a16.19,16.19,0,0,0-.49,28.43L59.3,40.94A5.13,5.13,0,0,0,61.2,42a5,5,0,0,0,3.86-.35h0a5,5,0,0,0,2.49-3A5,5,0,0,0,67.72,36.46ZM54.56,22.31A6.9,6.9,0,1,1,57.47,13,6.9,6.9,0,0,1,54.56,22.31Z"/></g></g></svg>